<svg width="20" height="20" viewBox="0 0 20 20" fill="none" xmlns="http://www.w3.org/2000/svg">
<path d="M13.7433 7.30333C13.7885 7.23477 13.8197 7.15799 13.8352 7.07737C13.8506 6.99675 13.8501 6.91387 13.8335 6.83347C13.817 6.75306 13.7847 6.67671 13.7387 6.60877C13.6926 6.54083 13.6336 6.48263 13.565 6.43749C13.426 6.34791 13.2574 6.31649 13.0954 6.35C12.9335 6.38351 12.7912 6.47927 12.6992 6.61666C12.055 7.53999 9.22 12.1942 9.22 12.1942L7.485 10.0642C7.43352 9.99962 7.36976 9.94592 7.29741 9.90616C7.22506 9.8664 7.14555 9.84136 7.06347 9.8325C6.98139 9.82364 6.89837 9.83113 6.8192 9.85454C6.74003 9.87794 6.66628 9.9168 6.60222 9.96887C6.53815 10.0209 6.48503 10.0852 6.44593 10.1579C6.40684 10.2306 6.38253 10.3103 6.37442 10.3925C6.36631 10.4747 6.37456 10.5576 6.39869 10.6366C6.42282 10.7155 6.46235 10.7889 6.515 10.8525L8.09834 12.8083C8.62167 13.455 8.88417 13.7783 9.2175 13.7817C9.24871 13.7818 9.27989 13.7798 9.31084 13.7758C9.6425 13.735 9.86584 13.3842 10.3133 12.6825L13.7433 7.30333Z" fill="white"/>
<path fill-rule="evenodd" clip-rule="evenodd" d="M10.0003 18.3337C14.6028 18.3337 18.3337 14.6028 18.3337 10.0003C18.3337 5.39783 14.6028 1.66699 10.0003 1.66699C5.39783 1.66699 1.66699 5.39783 1.66699 10.0003C1.66699 14.6028 5.39783 18.3337 10.0003 18.3337ZM17.0837 10.0003C17.0837 11.8789 16.3374 13.6806 15.009 15.009C13.6806 16.3374 11.8789 17.0837 10.0003 17.0837C8.12171 17.0837 6.32004 16.3374 4.99165 15.009C3.66327 13.6806 2.91699 11.8789 2.91699 10.0003C2.91699 8.12171 3.66327 6.32004 4.99165 4.99165C6.32004 3.66327 8.12171 2.91699 10.0003 2.91699C11.8789 2.91699 13.6806 3.66327 15.009 4.99165C16.3374 6.32004 17.0837 8.12171 17.0837 10.0003Z" fill="white"/>
</svg>
